<svg data-v-423bf9ae="" xmlns="http://www.w3.org/2000/svg" viewBox="0 0 303.9367940880366 163" class="iconAbove"><!----><!----><!----><g data-v-423bf9ae="" id="efcaab88-87a2-4e0d-b920-f4931300bafc" fill="white" transform="matrix(6.376195640056349,0,0,6.376195640056349,3.2355736324242628,101.15090795554157)"><path d="M1.19 9.63L1.19 9.63L1.19 9.63Q1.88 9.60 2.52 9.62L2.52 9.62L2.52 9.62Q3.16 9.63 3.86 9.60L3.86 9.60L3.86 9.60Q3.96 9.60 4.16 9.60L4.16 9.60L4.16 9.60Q4.37 9.60 4.63 9.61L4.63 9.61L4.63 9.61Q4.89 9.62 5.18 9.63L5.18 9.63L5.18 9.63Q5.47 9.63 5.78 9.63L5.78 9.63L5.78 9.63Q6.37 9.65 6.85 9.65L6.85 9.65L6.85 9.65Q7.34 9.65 7.50 9.62L7.50 9.62L7.50 9.62Q7.62 9.42 7.67 9.30L7.67 9.30L7.67 9.30Q7.71 9.17 7.74 9.03L7.74 9.03L7.74 9.03Q7.77 8.88 7.77 8.71L7.77 8.71L7.77 8.71Q7.77 8.53 7.78 8.27L7.78 8.27L7.78 8.27Q7.35 8.13 6.75 8.15L6.75 8.15L6.75 8.15Q6.15 8.16 5.46 8.22L5.46 8.22L5.46 8.22Q5.11 8.25 4.75 8.27L4.75 8.27L4.75 8.27Q4.40 8.30 4.07 8.32L4.07 8.32L4.07 8.32Q3.74 8.34 3.40 8.33L3.40 8.33L3.40 8.33Q3.07 8.32 2.69 8.25L2.69 8.25L2.69 8.25Q3.00 7.87 3.49 7.34L3.49 7.34L3.49 7.34Q3.98 6.82 4.56 6.23L4.56 6.23L4.56 6.23Q5.14 5.64 5.77 5.03L5.77 5.03L5.77 5.03Q6.40 4.42 6.99 3.87L6.99 3.87L6.99 3.87Q7.59 3.32 8.11 2.86L8.11 2.86L8.11 2.86Q8.62 2.41 8.97 2.14L8.97 2.14L9.35 1.85L9.35 1.85Q9.53 1.60 9.58 1.34L9.58 1.34L9.58 1.34Q9.63 1.08 9.59 0.88L9.59 0.88L9.59 0.88Q9.55 0.67 9.42 0.54L9.42 0.54L9.42 0.54Q9.28 0.41 9.11 0.39L9.11 0.39L9.11 0.39Q8.95 0.35 8.51 0.33L8.51 0.33L8.51 0.33Q8.08 0.31 7.53 0.30L7.53 0.30L7.53 0.30Q6.97 0.29 6.36 0.29L6.36 0.29L6.36 0.29Q5.74 0.29 5.21 0.30L5.21 0.30L5.21 0.30Q4.68 0.31 4.30 0.32L4.30 0.32L4.30 0.32Q3.92 0.34 3.82 0.35L3.82 0.35L3.82 0.35Q3.57 0.38 3.23 0.38L3.23 0.38L3.23 0.38Q2.91 0.38 2.67 0.49L2.67 0.49L2.52 1.32L2.52 1.32Q2.49 1.39 2.48 1.46L2.48 1.46L2.48 1.46Q2.48 1.53 2.48 1.64L2.48 1.64L2.48 1.64Q2.52 1.79 2.52 1.95L2.52 1.95L2.52 1.95Q2.76 1.93 2.98 1.88L2.98 1.88L2.98 1.88Q3.19 1.83 3.43 1.81L3.43 1.81L3.43 1.81Q4.30 1.67 5.34 1.72L5.34 1.72L5.34 1.72Q6.38 1.76 7.34 1.86L7.34 1.86L7.34 1.86Q7.01 2.14 6.80 2.36L6.80 2.36L6.80 2.36Q6.59 2.58 6.38 2.76L6.38 2.76L6.38 2.76Q6.13 2.98 5.64 3.42L5.64 3.42L5.64 3.42Q5.15 3.86 4.55 4.43L4.55 4.43L4.55 4.43Q3.95 5.00 3.30 5.61L3.30 5.61L3.30 5.61Q2.65 6.23 2.09 6.79L2.09 6.79L2.09 6.79Q1.54 7.35 1.13 7.80L1.13 7.80L1.13 7.80Q0.73 8.25 0.63 8.46L0.63 8.46L0.63 8.46Q0.52 8.69 0.47 8.83L0.47 8.83L0.47 8.83Q0.42 8.96 0.39 9.07L0.39 9.07L0.39 9.07Q0.35 9.18 0.38 9.32L0.38 9.32L0.38 9.32Q0.38 9.39 0.39 9.46L0.39 9.46L0.39 9.46Q0.39 9.53 0.41 9.63L0.41 9.63L0.41 9.63Q0.48 9.69 0.55 9.70L0.55 9.70L0.55 9.70Q0.62 9.70 0.71 9.70L0.71 9.70L0.71 9.70Q0.83 9.69 0.95 9.66L0.95 9.66L0.95 9.66Q1.06 9.63 1.19 9.63ZM13.97 4.28L13.97 4.28L13.97 4.28Q13.69 3.68 13.13 3.50L13.13 3.50L13.13 3.50Q12.56 3.32 11.91 3.47L11.91 3.47L11.91 3.47Q11.27 3.63 10.65 4.07L10.65 4.07L10.65 4.07Q10.02 4.52 9.63 5.18L9.63 5.18L9.63 5.18Q9.65 5.18 9.71 5.25L9.71 5.25L9.71 5.25Q9.77 5.32 9.85 5.40L9.85 5.40L9.85 5.40Q9.93 5.47 9.99 5.54L9.99 5.54L9.99 5.54Q10.05 5.60 10.08 5.60L10.08 5.60L10.08 5.60Q10.30 5.39 10.53 5.19L10.53 5.19L10.53 5.19Q10.75 4.98 11.02 4.83L11.02 4.83L11.02 4.83Q11.26 4.69 11.56 4.61L11.56 4.61L11.56 4.61Q11.87 4.52 12.15 4.53L12.15 4.53L12.15 4.53Q12.43 4.54 12.64 4.67L12.64 4.67L12.64 4.67Q12.84 4.80 12.87 5.11L12.87 5.11L12.87 5.11Q12.88 5.33 12.82 5.57L12.82 5.57L12.82 5.57Q12.77 5.81 12.74 6.03L12.74 6.03L12.74 6.03Q12.40 6.09 12.05 6.09L12.05 6.09L12.05 6.09Q11.72 6.09 11.38 6.15L11.38 6.15L11.38 6.15Q11.05 6.20 10.64 6.34L10.64 6.34L10.64 6.34Q10.23 6.47 9.86 6.68L9.86 6.68L9.86 6.68Q9.48 6.89 9.20 7.18L9.20 7.18L9.20 7.18Q8.92 7.48 8.83 7.85L8.83 7.85L8.79 8.05L8.79 8.05Q8.82 8.05 8.78 8.09L8.78 8.09L8.78 8.09Q8.67 8.71 9.03 9.09L9.03 9.09L9.03 9.09Q9.32 9.41 9.74 9.49L9.74 9.49L9.74 9.49Q10.15 9.58 10.60 9.58L10.60 9.58L10.60 9.58Q10.60 9.56 10.63 9.56L10.63 9.56L10.63 9.56Q10.82 9.56 11.03 9.52L11.03 9.52L11.03 9.52Q11.23 9.48 11.42 9.44L11.42 9.44L11.42 9.44Q11.59 9.39 11.69 9.37L11.69 9.37L11.69 9.37Q11.79 9.34 11.87 9.31L11.87 9.31L11.87 9.31Q11.94 9.28 12.01 9.26L12.01 9.26L12.01 9.26Q12.07 9.24 12.15 9.21L12.15 9.21L12.15 9.21Q12.14 9.38 12.24 9.46L12.24 9.46L12.24 9.46Q12.35 9.53 12.39 9.69L12.39 9.69L12.39 9.69Q12.59 9.69 12.78 9.65L12.78 9.65L12.78 9.65Q12.98 9.62 13.17 9.60L13.17 9.60L13.17 9.60Q13.20 9.41 13.30 9.03L13.30 9.03L13.30 9.03Q13.40 8.65 13.47 8.36L13.47 8.36L13.50 8.34L13.50 8.34Q13.59 7.92 13.75 7.37L13.75 7.37L13.75 7.37Q13.90 6.82 14.01 6.25L14.01 6.25L14.01 6.25Q14.11 5.68 14.13 5.17L14.13 5.17L14.13 5.17Q14.14 4.65 13.97 4.28ZM12.61 6.99L12.61 6.99L12.61 6.99Q12.57 7.22 12.50 7.52L12.50 7.52L12.50 7.52Q12.43 7.81 12.35 8.05L12.35 8.05L12.35 8.05Q12.31 8.16 11.96 8.26L11.96 8.26L11.96 8.26Q11.61 8.36 11.19 8.39L11.19 8.39L11.19 8.39Q10.78 8.41 10.43 8.35L10.43 8.35L10.43 8.35Q10.08 8.29 10.05 8.09L10.05 8.09L10.05 8.09Q10.05 8.02 10.06 7.97L10.06 7.97L10.06 7.97Q10.07 7.92 10.08 7.85L10.08 7.85L10.08 7.85Q10.15 7.66 10.38 7.49L10.38 7.49L10.38 7.49Q10.61 7.32 10.79 7.25L10.79 7.25L10.79 7.25Q10.84 7.22 10.88 7.22L10.88 7.22L10.88 7.22Q10.92 7.21 10.95 7.20L10.95 7.20L10.95 7.20Q11.34 7.07 11.62 7.00L11.62 7.00L11.62 7.00Q11.90 6.93 12.28 6.93L12.28 6.93L12.28 6.93Q12.35 6.96 12.46 6.95L12.46 6.95L12.46 6.95Q12.57 6.94 12.61 6.99ZM19.95 4.84L19.95 4.84L19.95 4.83L19.95 4.83Q19.82 4.17 19.48 3.93L19.48 3.93L19.48 3.93Q19.14 3.70 18.69 3.76L18.69 3.76L18.69 3.76Q18.24 3.82 17.75 4.12L17.75 4.12L17.75 4.12Q17.25 4.42 16.80 4.83L16.80 4.83L16.80 4.83Q16.84 4.58 16.88 4.25L16.88 4.25L16.88 4.25Q16.91 3.92 16.90 3.72L16.90 3.72L16.90 3.72Q16.81 3.72 16.71 3.70L16.71 3.70L16.71 3.70Q16.60 3.67 16.53 3.72L16.53 3.72L16.53 3.72Q16.44 3.75 16.25 3.75L16.25 3.75L16.25 3.75Q16.07 3.75 16.00 3.81L16.00 3.81L16.00 3.81Q15.95 3.85 15.85 4.24L15.85 4.24L15.85 4.24Q15.75 4.62 15.62 5.17L15.62 5.17L15.62 5.17Q15.50 5.73 15.36 6.38L15.36 6.38L15.36 6.38Q15.22 7.04 15.10 7.62L15.10 7.62L15.10 7.62Q14.98 8.20 14.90 8.63L14.90 8.63L14.90 8.63Q14.81 9.06 14.78 9.17L14.78 9.17L14.78 9.17Q14.80 9.30 14.93 9.34L14.93 9.34L14.93 9.34Q15.06 9.38 15.23 9.39L15.23 9.39L15.23 9.39Q15.40 9.39 15.57 9.37L15.57 9.37L15.57 9.37Q15.74 9.35 15.85 9.35L15.85 9.35L15.92 9.02L15.92 9.02Q16.07 8.30 16.25 7.58L16.25 7.58L16.25 7.58Q16.42 6.86 16.73 6.15L16.73 6.15L16.73 6.15Q16.84 5.89 17.04 5.67L17.04 5.67L17.04 5.67Q17.23 5.45 17.46 5.29L17.46 5.29L17.46 5.29Q17.68 5.12 17.92 5.05L17.92 5.05L17.92 5.05Q18.16 4.98 18.34 5.06L18.34 5.06L18.34 5.06Q18.52 5.14 18.63 5.38L18.63 5.38L18.63 5.38Q18.73 5.61 18.70 6.08L18.70 6.08L18.70 6.08Q18.68 6.37 18.62 6.69L18.62 6.69L18.62 6.69Q18.56 7.01 18.49 7.31L18.49 7.31L18.49 7.31Q18.35 7.81 18.23 8.31L18.23 8.31L18.23 8.31Q18.10 8.81 17.99 9.31L17.99 9.31L17.99 9.31Q18.12 9.38 18.29 9.41L18.29 9.41L18.29 9.41Q18.47 9.44 18.66 9.37L18.66 9.37L18.66 9.37Q18.77 9.34 18.87 9.33L18.87 9.33L18.87 9.33Q18.97 9.32 19.07 9.31L19.07 9.31L19.07 9.31Q19.17 9.18 19.26 8.96L19.26 8.96L19.26 8.96Q19.35 8.74 19.42 8.50L19.42 8.50L19.42 8.50Q19.49 8.26 19.55 8.03L19.55 8.03L19.55 8.03Q19.61 7.80 19.64 7.66L19.64 7.66L19.64 7.66Q19.85 6.73 20.25 6.12L20.25 6.12L20.25 6.12Q20.65 5.50 21.05 5.26L21.05 5.26L21.05 5.26Q21.45 5.03 21.74 5.21L21.74 5.21L21.74 5.21Q22.02 5.39 21.98 6.08L21.98 6.08L21.98 6.08Q21.95 6.37 21.90 6.69L21.90 6.69L21.90 6.69Q21.84 7.01 21.77 7.31L21.77 7.31L21.77 7.31Q21.63 7.81 21.50 8.31L21.50 8.31L21.50 8.31Q21.38 8.81 21.27 9.31L21.27 9.31L21.27 9.31Q21.39 9.38 21.56 9.46L21.56 9.46L21.56 9.46Q21.73 9.53 21.94 9.46L21.94 9.46L21.94 9.46Q22.02 9.44 22.11 9.43L22.11 9.43L22.11 9.43Q22.19 9.42 22.29 9.41L22.29 9.41L22.29 9.41Q22.39 9.28 22.48 9.04L22.48 9.04L22.48 9.04Q22.58 8.81 22.67 8.55L22.67 8.55L22.67 8.55Q22.75 8.29 22.82 8.04L22.82 8.04L22.82 8.04Q22.89 7.80 22.92 7.66L22.92 7.66L22.92 7.66Q23.07 6.94 23.21 6.23L23.21 6.23L23.21 6.23Q23.35 5.52 23.23 4.84L23.23 4.84L23.23 4.84Q23.10 4.17 22.74 3.93L22.74 3.93L22.74 3.93Q22.39 3.70 21.92 3.76L21.92 3.76L21.92 3.76Q21.45 3.82 20.92 4.12L20.92 4.12L20.92 4.12Q20.40 4.42 19.95 4.84ZM24.19 9.63L24.19 9.63L24.19 9.63Q24.88 9.60 25.52 9.62L25.52 9.62L25.52 9.62Q26.17 9.63 26.87 9.60L26.87 9.60L26.87 9.60Q26.96 9.60 27.16 9.60L27.16 9.60L27.16 9.60Q27.37 9.60 27.63 9.61L27.63 9.61L27.63 9.61Q27.89 9.62 28.18 9.63L28.18 9.63L28.18 9.63Q28.48 9.63 28.78 9.63L28.78 9.63L28.78 9.63Q29.37 9.65 29.85 9.65L29.85 9.65L29.85 9.65Q30.34 9.65 30.51 9.62L30.51 9.62L30.51 9.62Q30.62 9.42 30.67 9.30L30.67 9.30L30.67 9.30Q30.72 9.17 30.74 9.03L30.74 9.03L30.74 9.03Q30.77 8.88 30.77 8.71L30.77 8.71L30.77 8.71Q30.77 8.53 30.79 8.27L30.79 8.27L30.79 8.27Q30.35 8.13 29.75 8.15L29.75 8.15L29.75 8.15Q29.15 8.16 28.46 8.22L28.46 8.22L28.46 8.22Q28.11 8.25 27.76 8.27L27.76 8.27L27.76 8.27Q27.40 8.30 27.08 8.32L27.08 8.32L27.08 8.32Q26.74 8.34 26.40 8.33L26.40 8.33L26.40 8.33Q26.07 8.32 25.69 8.25L25.69 8.25L25.69 8.25Q26.00 7.87 26.49 7.34L26.49 7.34L26.49 7.34Q26.98 6.82 27.56 6.23L27.56 6.23L27.56 6.23Q28.14 5.64 28.77 5.03L28.77 5.03L28.77 5.03Q29.40 4.42 30.00 3.87L30.00 3.87L30.00 3.87Q30.59 3.32 31.11 2.86L31.11 2.86L31.11 2.86Q31.63 2.41 31.98 2.14L31.98 2.14L32.35 1.85L32.35 1.85Q32.54 1.60 32.59 1.34L32.59 1.34L32.59 1.34Q32.63 1.08 32.59 0.88L32.59 0.88L32.59 0.88Q32.55 0.67 32.42 0.54L32.42 0.54L32.42 0.54Q32.28 0.41 32.12 0.39L32.12 0.39L32.12 0.39Q31.95 0.35 31.51 0.33L31.51 0.33L31.51 0.33Q31.08 0.31 30.53 0.30L30.53 0.30L30.53 0.30Q29.97 0.29 29.36 0.29L29.36 0.29L29.36 0.29Q28.74 0.29 28.21 0.30L28.21 0.30L28.21 0.30Q27.68 0.31 27.30 0.32L27.30 0.32L27.30 0.32Q26.92 0.34 26.82 0.35L26.82 0.35L26.82 0.35Q26.57 0.38 26.24 0.38L26.24 0.38L26.24 0.38Q25.91 0.38 25.68 0.49L25.68 0.49L25.52 1.32L25.52 1.32Q25.49 1.39 25.49 1.46L25.49 1.46L25.49 1.46Q25.48 1.53 25.48 1.64L25.48 1.64L25.48 1.64Q25.52 1.79 25.52 1.95L25.52 1.95L25.52 1.95Q25.76 1.93 25.98 1.88L25.98 1.88L25.98 1.88Q26.19 1.83 26.43 1.81L26.43 1.81L26.43 1.81Q27.30 1.67 28.34 1.72L28.34 1.72L28.34 1.72Q29.39 1.76 30.34 1.86L30.34 1.86L30.34 1.86Q30.02 2.14 29.81 2.36L29.81 2.36L29.81 2.36Q29.60 2.58 29.39 2.76L29.39 2.76L29.39 2.76Q29.13 2.98 28.64 3.42L28.64 3.42L28.64 3.42Q28.15 3.86 27.55 4.43L27.55 4.43L27.55 4.43Q26.95 5.00 26.30 5.61L26.30 5.61L26.30 5.61Q25.65 6.23 25.10 6.79L25.10 6.79L25.10 6.79Q24.54 7.35 24.14 7.80L24.14 7.80L24.14 7.80Q23.73 8.25 23.63 8.46L23.63 8.46L23.63 8.46Q23.52 8.69 23.47 8.83L23.47 8.83L23.47 8.83Q23.42 8.96 23.39 9.07L23.39 9.07L23.39 9.07Q23.35 9.18 23.38 9.32L23.38 9.32L23.38 9.32Q23.38 9.39 23.39 9.46L23.39 9.46L23.39 9.46Q23.39 9.53 23.41 9.63L23.41 9.63L23.41 9.63Q23.48 9.69 23.55 9.70L23.55 9.70L23.55 9.70Q23.62 9.70 23.72 9.70L23.72 9.70L23.72 9.70Q23.83 9.69 23.95 9.66L23.95 9.66L23.95 9.66Q24.07 9.63 24.19 9.63ZM36.97 4.28L36.97 4.28L36.97 4.28Q36.69 3.68 36.13 3.50L36.13 3.50L36.13 3.50Q35.56 3.32 34.92 3.47L34.92 3.47L34.92 3.47Q34.27 3.63 33.65 4.07L33.65 4.07L33.65 4.07Q33.03 4.52 32.63 5.18L32.63 5.18L32.63 5.18Q32.65 5.18 32.71 5.25L32.71 5.25L32.71 5.25Q32.77 5.32 32.85 5.40L32.85 5.40L32.85 5.40Q32.93 5.47 32.99 5.54L32.99 5.54L32.99 5.54Q33.05 5.60 33.08 5.60L33.08 5.60L33.08 5.60Q33.31 5.39 33.53 5.19L33.53 5.19L33.53 5.19Q33.75 4.98 34.02 4.83L34.02 4.83L34.02 4.83Q34.26 4.69 34.57 4.61L34.57 4.61L34.57 4.61Q34.87 4.52 35.15 4.53L35.15 4.53L35.15 4.53Q35.43 4.54 35.64 4.67L35.64 4.67L35.64 4.67Q35.84 4.80 35.87 5.11L35.87 5.11L35.87 5.11Q35.88 5.33 35.83 5.57L35.83 5.57L35.83 5.57Q35.77 5.81 35.74 6.03L35.74 6.03L35.74 6.03Q35.41 6.09 35.06 6.09L35.06 6.09L35.06 6.09Q34.72 6.09 34.38 6.15L34.38 6.15L34.38 6.15Q34.05 6.20 33.64 6.34L33.64 6.34L33.64 6.34Q33.24 6.47 32.86 6.68L32.86 6.68L32.86 6.68Q32.48 6.89 32.20 7.18L32.20 7.18L32.20 7.18Q31.92 7.48 31.84 7.85L31.84 7.85L31.79 8.05L31.79 8.05Q31.82 8.05 31.78 8.09L31.78 8.09L31.78 8.09Q31.67 8.71 32.03 9.09L32.03 9.09L32.03 9.09Q32.33 9.41 32.74 9.49L32.74 9.49L32.74 9.49Q33.15 9.58 33.60 9.58L33.60 9.58L33.60 9.58Q33.60 9.56 33.63 9.56L33.63 9.56L33.63 9.56Q33.82 9.56 34.03 9.52L34.03 9.52L34.03 9.52Q34.23 9.48 34.43 9.44L34.43 9.44L34.43 9.44Q34.59 9.39 34.69 9.37L34.69 9.37L34.69 9.37Q34.79 9.34 34.87 9.31L34.87 9.31L34.87 9.31Q34.94 9.28 35.01 9.26L35.01 9.26L35.01 9.26Q35.07 9.24 35.15 9.21L35.15 9.21L35.15 9.21Q35.14 9.38 35.25 9.46L35.25 9.46L35.25 9.46Q35.35 9.53 35.39 9.69L35.39 9.69L35.39 9.69Q35.59 9.69 35.78 9.65L35.78 9.65L35.78 9.65Q35.98 9.62 36.18 9.60L36.18 9.60L36.18 9.60Q36.20 9.41 36.30 9.03L36.30 9.03L36.30 9.03Q36.40 8.65 36.47 8.36L36.47 8.36L36.50 8.34L36.50 8.34Q36.60 7.92 36.75 7.37L36.75 7.37L36.75 7.37Q36.90 6.82 37.01 6.25L37.01 6.25L37.01 6.25Q37.11 5.68 37.13 5.17L37.13 5.17L37.13 5.17Q37.14 4.65 36.97 4.28ZM35.62 6.99L35.62 6.99L35.62 6.99Q35.57 7.22 35.50 7.52L35.50 7.52L35.50 7.52Q35.43 7.81 35.35 8.05L35.35 8.05L35.35 8.05Q35.31 8.16 34.96 8.26L34.96 8.26L34.96 8.26Q34.61 8.36 34.20 8.39L34.20 8.39L34.20 8.39Q33.78 8.41 33.43 8.35L33.43 8.35L33.43 8.35Q33.08 8.29 33.05 8.09L33.05 8.09L33.05 8.09Q33.05 8.02 33.06 7.97L33.06 7.97L33.06 7.97Q33.07 7.92 33.08 7.85L33.08 7.85L33.08 7.85Q33.15 7.66 33.38 7.49L33.38 7.49L33.38 7.49Q33.61 7.32 33.80 7.25L33.80 7.25L33.80 7.25Q33.84 7.22 33.88 7.22L33.88 7.22L33.88 7.22Q33.92 7.21 33.95 7.20L33.95 7.20L33.95 7.20Q34.34 7.07 34.62 7.00L34.62 7.00L34.62 7.00Q34.90 6.93 35.28 6.93L35.28 6.93L35.28 6.93Q35.35 6.96 35.46 6.95L35.46 6.95L35.46 6.95Q35.57 6.94 35.62 6.99ZM42.95 4.84L42.95 4.84L42.95 4.83L42.95 4.83Q42.83 4.17 42.48 3.93L42.48 3.93L42.48 3.93Q42.14 3.70 41.69 3.76L41.69 3.76L41.69 3.76Q41.24 3.82 40.75 4.12L40.75 4.12L40.75 4.12Q40.25 4.42 39.80 4.83L39.80 4.83L39.80 4.83Q39.84 4.58 39.88 4.25L39.88 4.25L39.88 4.25Q39.91 3.92 39.90 3.72L39.90 3.72L39.90 3.72Q39.82 3.72 39.71 3.70L39.71 3.70L39.71 3.70Q39.61 3.67 39.54 3.72L39.54 3.72L39.54 3.72Q39.44 3.75 39.26 3.75L39.26 3.75L39.26 3.75Q39.07 3.75 39.00 3.81L39.00 3.81L39.00 3.81Q38.95 3.85 38.85 4.24L38.85 4.24L38.85 4.24Q38.75 4.62 38.63 5.17L38.63 5.17L38.63 5.17Q38.50 5.73 38.36 6.38L38.36 6.38L38.36 6.38Q38.22 7.04 38.10 7.62L38.10 7.62L38.10 7.62Q37.98 8.20 37.90 8.63L37.90 8.63L37.90 8.63Q37.81 9.06 37.79 9.17L37.79 9.17L37.79 9.17Q37.80 9.30 37.93 9.34L37.93 9.34L37.93 9.34Q38.07 9.38 38.23 9.39L38.23 9.39L38.23 9.39Q38.40 9.39 38.57 9.37L38.57 9.37L38.57 9.37Q38.74 9.35 38.85 9.35L38.85 9.35L38.92 9.02L38.92 9.02Q39.07 8.30 39.25 7.58L39.25 7.58L39.25 7.58Q39.42 6.86 39.73 6.15L39.73 6.15L39.73 6.15Q39.84 5.89 40.04 5.67L40.04 5.67L40.04 5.67Q40.24 5.45 40.46 5.29L40.46 5.29L40.46 5.29Q40.68 5.12 40.92 5.05L40.92 5.05L40.92 5.05Q41.16 4.98 41.34 5.06L41.34 5.06L41.34 5.06Q41.52 5.14 41.63 5.38L41.63 5.38L41.63 5.38Q41.73 5.61 41.71 6.08L41.71 6.08L41.71 6.08Q41.68 6.37 41.62 6.69L41.62 6.69L41.62 6.69Q41.57 7.01 41.50 7.31L41.50 7.31L41.50 7.31Q41.36 7.81 41.23 8.31L41.23 8.31L41.23 8.31Q41.10 8.81 40.99 9.31L40.99 9.31L40.99 9.31Q41.12 9.38 41.29 9.41L41.29 9.41L41.29 9.41Q41.47 9.44 41.66 9.37L41.66 9.37L41.66 9.37Q41.78 9.34 41.87 9.33L41.87 9.33L41.87 9.33Q41.97 9.32 42.07 9.31L42.07 9.31L42.07 9.31Q42.17 9.18 42.26 8.96L42.26 8.96L42.26 8.96Q42.35 8.74 42.42 8.50L42.42 8.50L42.42 8.50Q42.49 8.26 42.55 8.03L42.55 8.03L42.55 8.03Q42.62 7.80 42.64 7.66L42.64 7.66L42.64 7.66Q42.85 6.73 43.25 6.12L43.25 6.12L43.25 6.12Q43.65 5.50 44.05 5.26L44.05 5.26L44.05 5.26Q44.45 5.03 44.74 5.21L44.74 5.21L44.74 5.21Q45.02 5.39 44.98 6.08L44.98 6.08L44.98 6.08Q44.95 6.37 44.90 6.69L44.90 6.69L44.90 6.69Q44.84 7.01 44.77 7.31L44.77 7.31L44.77 7.31Q44.63 7.81 44.51 8.31L44.51 8.31L44.51 8.31Q44.38 8.81 44.27 9.31L44.27 9.31L44.27 9.31Q44.39 9.38 44.56 9.46L44.56 9.46L44.56 9.46Q44.73 9.53 44.94 9.46L44.94 9.46L44.94 9.46Q45.02 9.44 45.11 9.43L45.11 9.43L45.11 9.43Q45.19 9.42 45.29 9.41L45.29 9.41L45.29 9.41Q45.39 9.28 45.49 9.04L45.49 9.04L45.49 9.04Q45.58 8.81 45.67 8.55L45.67 8.55L45.67 8.55Q45.75 8.29 45.82 8.04L45.82 8.04L45.82 8.04Q45.89 7.80 45.92 7.66L45.92 7.66L45.92 7.66Q46.07 6.94 46.21 6.23L46.21 6.23L46.21 6.23Q46.35 5.52 46.23 4.84L46.23 4.84L46.23 4.84Q46.10 4.17 45.75 3.93L45.75 3.93L45.75 3.93Q45.39 3.70 44.92 3.76L44.92 3.76L44.92 3.76Q44.45 3.82 43.92 4.12L43.92 4.12L43.92 4.12Q43.40 4.42 42.95 4.84Z"></path></g><!----><g data-v-423bf9ae="" id="dd6b13a4-7dfc-441a-8ca2-a1dde914e98a" transform="matrix(3.03932527457097,0,0,3.03932527457097,0.03060536838859207,-123.61183059585409)" stroke="none" fill="white"><path d="M20.784 47.299c8.095-3.358 16.643-5.959 25.455-6.288 2.21-.053 4.455.066 6.587.687 4.875 2.379 9.941 4.362 14.933 6.489 3.612 1.195 7.462.763 11.198.982 2.277.105 4.557.283 6.809.665 1.764.309 3.414 1.072 4.924 2.016 2.961.869 5.765 2.236 8.334 3.943.431.287.892.652.975 1.197.068.955-1.079 1.326-1.273 2.184-.179.516.666.605.551 1.105-.153.682-.926.934-1.496 1.182-3.66 1.242-7.565 1.426-11.389 1.729.018-2.199-.275-4.463-1.248-6.459-1.188-1.992-3.222-3.555-5.553-3.895-3.001-.471-6.434.213-8.463 2.629-2.047 2.371-2.327 5.688-2.145 8.682-12.065.504-24.138 1.285-36.205 1.793.04-1.446.14-2.934-.268-4.342-.533-1.975-1.75-3.82-3.544-4.854-2.171-1.3-4.893-1.369-7.272-.66-1.84.56-3.454 1.845-4.342 3.56-1.219 2.176-1.125 4.748-1.215 7.16-3.443.036-6.877-.201-10.303-.511-1.555-.623-3.079-1.375-4.454-2.334-.592-.623-.676-1.562-.967-2.345-.217-.979-.726-2.071-.14-3.02 1.474-2.678 4.234-4.24 6.691-5.891-.597-.057-1.336-.143-1.798-.52l.031-.236c.715-.109 1.46.117 2.158-.094-.54-.984-1.399-1.84-2.167-2.681-.544-.204-1.178-.18-1.669-.538.011-.079.035-.239.048-.318 1.489-.32 3.024-.349 4.54-.456 1.02-.059 2.096-.173 3.077.18.077.638-.857.504-.888 1.02.443.555.954 1.068 1.546 1.464.765-.199 1.493-.543 2.278-.687 2.287-.659 4.453-1.663 6.664-2.538zm21.428-4.817c-2.044.259-4.108.546-6.097 1.079a154.655 154.655 0 0 0 2.618 6.689c7.7-.151 15.408-.489 23.1-.897l-.054-.193c-2.805-1.647-5.523-3.45-8.401-4.97-1.625-.807-3.285-1.678-5.121-1.847-2.012-.209-4.034.034-6.045.139zm-17.009 4.632c-1.535.693-3.185 1.254-4.487 2.353-.337.516.393.713.75.792 2.323.406 4.693.294 7.04.322 2.645-.033 5.292-.058 7.937-.147-.77-2.131-1.669-4.222-2.491-6.335-2.994.755-5.896 1.846-8.749 3.015z"></path><path d="M76.077 53.523c1.86-.408 3.891-.066 5.489.975 1.875 1.139 3.139 3.203 3.347 5.383a7.225 7.225 0 0 1-1.66 5.375c-1.653 2-4.423 2.969-6.967 2.482-3.173-.518-5.781-3.35-5.976-6.568-.358-3.529 2.292-7.004 5.767-7.647zM22.917 56.285c1.713-.381 3.566-.17 5.119.666 1.875.969 3.29 2.793 3.722 4.863.408 1.879.046 3.916-1.028 5.516-1.202 1.855-3.298 3.072-5.496 3.25-2.219.213-4.509-.662-6.026-2.297-1.667-1.744-2.322-4.357-1.73-6.691.63-2.613 2.832-4.709 5.439-5.307z"></path></g><!----></svg>